<svg width="753" height="539" viewBox="0 0 753 539" fill="none" xmlns="http://www.w3.org/2000/svg">
<path d="M136.85 360H0V0H135.855C246.828 0 316 67.6243 316 180C316 292.376 246.828 360 136.85 360ZM94.5512 279.448H133.367C189.102 279.448 220.454 256.077 220.454 180C220.454 103.923 189.102 80.5525 130.879 80.5525H94.5512V279.448Z" fill="white"/>
<path d="M290 539V180H442.973C523.433 180 576.08 225.619 576.08 301.485C576.08 351.07 553.233 386.276 514.493 404.623L588 539H485.19L421.617 419.499H384.367V539H290ZM384.367 345.616H421.12C456.88 345.616 477.243 332.724 477.243 301.485C477.243 269.75 456.88 255.37 421.12 255.37H384.367V345.616Z" fill="white"/>
<path d="M496 438V77H753V153.787H590.449V219.106H739.578V295.894H590.449V361.213H752.503V438H496Z" fill="white"/>
</svg>
