<svg width="141" height="32" viewBox="0 0 141 32" fill="none" xmlns="http://www.w3.org/2000/svg">
<path d="M24.125 19.7344C24.125 19.9948 23.9375 20.6146 23.5625 21.5938C23.3854 21.8958 23.0781 22.3542 22.6406 22.9688C22.3698 23.2396 22.0104 23.6406 21.5625 24.1719C21.3125 24.2135 20.8698 24.4531 20.2344 24.8906C19.974 25.0573 19.4479 25.4062 18.6562 25.9375C18.0312 26.1771 17.125 26.5729 15.9375 27.125C14.1667 27.6667 13.2812 27.9479 13.2812 27.9688C13.1354 27.9688 13.0052 27.9323 12.8906 27.8594C12.5885 28.0156 12.4115 28.099 12.3594 28.1094C12.3281 28.1094 12.2917 28.0938 12.25 28.0625C12.2083 28.0312 12.1771 28.0156 12.1562 28.0156C11.875 28.0156 11.4427 28.1771 10.8594 28.5C10.8594 28.6146 10.8906 28.6719 10.9531 28.6719C10.974 28.6719 10.9948 28.6667 11.0156 28.6562L5.5625 29.8594L2.375 29.5469C2.19792 29.3802 1.90104 29.1354 1.48438 28.8125C1.48438 28.6875 1.54167 28.5677 1.65625 28.4531L1.23438 28.0781C1.23438 27.9115 1.26042 27.8073 1.3125 27.7656C1.22917 27.6094 1.09375 27.4167 0.90625 27.1875C1.01042 27.0833 1.08854 26.7292 1.14062 26.125C1.17188 25.5938 1.36458 25.2188 1.71875 25C2.1875 24.9062 2.89583 24.7292 3.84375 24.4688C4.03125 24.4479 4.53125 24.375 5.34375 24.25C5.48958 24.1354 5.73438 23.9844 6.07812 23.7969L6.85938 23.8594C6.99479 23.6823 7.18229 23.5573 7.42188 23.4844C8.11979 23.2969 9.88021 22.7396 12.7031 21.8125C14.7656 21.125 16.0417 20.6198 16.5312 20.2969C16.9375 20.1406 17.6562 19.6615 18.6875 18.8594C18.6458 18.7656 18.4635 18.5938 18.1406 18.3438C17.7135 18.0938 15.849 17.1667 12.5469 15.5625C12.0469 15.3958 10.6823 14.8333 8.45312 13.875C6.92188 13.2083 5.85938 12.6406 5.26562 12.1719C4.25521 11.8073 3.18229 10.9688 2.04688 9.65625C2.04688 9.54167 2.09375 9.4375 2.1875 9.34375C1.86458 8.5 1.6875 8.07812 1.65625 8.07812C1.64583 8.07812 1.64062 8.07812 1.64062 8.07812C1.64062 7.18229 1.74479 6.53125 1.95312 6.125C2.36979 5.33333 3.26042 4.71354 4.625 4.26562C5.20833 4.08854 6.35417 3.73958 8.0625 3.21875C10.5208 2.875 11.75 2.6875 11.75 2.65625C11.75 2.65625 11.7396 2.65625 11.7188 2.65625C11.875 2.65625 11.9688 2.67188 12 2.70312C12.5104 2.44271 13.0417 2.3125 13.5938 2.3125H15.6719C15.6927 2.3125 15.75 2.32292 15.8438 2.34375C15.9167 2.375 15.9792 2.39062 16.0312 2.39062H17.2188C17.3125 2.39062 17.8281 2.5625 18.7656 2.90625C19.0781 3.15625 19.6146 3.53646 20.375 4.04688V4.59375L20.7656 5.23438C20.849 5.40104 20.8906 5.58333 20.8906 5.78125C20.8906 5.85417 20.8802 5.93229 20.8594 6.01562L20.7656 6.64062L20.25 7.125H18.4844C18.349 7.125 18.0833 7.05729 17.6875 6.92188C16.8229 6.83854 16.2812 6.79688 16.0625 6.79688C15.4896 6.79688 13.7604 7.04167 10.875 7.53125C10.4271 7.60417 9.74479 7.88021 8.82812 8.35938C8.82812 8.47396 8.91146 8.59375 9.07812 8.71875C9.31771 8.82292 10.5938 9.35417 12.9062 10.3125C13.0312 10.375 13.401 10.4948 14.0156 10.6719C14.6719 10.9323 15.6406 11.349 16.9219 11.9219C18.0156 12.1823 18.9844 12.6302 19.8281 13.2656C20.4427 13.4635 21.0833 13.849 21.75 14.4219C22.5417 15.0885 23.026 15.7604 23.2031 16.4375C23.4948 16.6562 23.7292 17.1771 23.9062 18C24.0521 18.6458 24.125 19.224 24.125 19.7344ZM64.4219 3.59375C64.3281 3.75 64.276 4.07812 64.2656 4.57812C64.2448 5.08854 64.2083 5.40104 64.1562 5.51562C64.2708 5.67188 64.3281 5.84375 64.3281 6.03125C64.3073 6.03125 64.2448 6.04688 64.1406 6.07812C64.0469 6.10938 63.9948 6.125 63.9844 6.125C63.9115 6.44792 63.6719 6.86458 63.2656 7.375C63.3177 7.54167 63.349 7.625 63.3594 7.625C63.276 7.71875 63.125 7.82812 62.9062 7.95312L60.7031 7.76562L57.6406 7.95312C57.6302 7.95312 57.6198 7.95312 57.6094 7.95312C57.5469 7.95312 57.4688 7.90104 57.375 7.79688C57.3542 7.79688 57.3385 7.79688 57.3281 7.79688C57.2344 7.79688 57.099 7.86979 56.9219 8.01562C56.8594 8.01562 56.6771 8.03125 56.375 8.0625C56.0729 8.09375 55.9115 8.10938 55.8906 8.10938C55.474 8.10938 55.1719 8.14583 54.9844 8.21875C54.9844 8.14583 54.9271 8.05729 54.8125 7.95312C54.7708 8.01562 54.6458 8.04688 54.4375 8.04688L52.7344 8.53125C52.6198 8.53125 52.4219 8.54167 52.1406 8.5625L51.7344 8.59375C51.6615 8.59375 51.5677 8.54167 51.4531 8.4375L51.3281 8.59375C51.276 8.59375 51.0677 8.61979 50.7031 8.67188C50.349 8.72396 50.1667 8.75 50.1562 8.75C50.125 8.75 49.9115 8.72396 49.5156 8.67188C49.1302 8.61979 48.9219 8.59375 48.8906 8.59375L46.9062 8.84375C46.7604 9 46.6875 9.10938 46.6875 9.17188C46.5417 9.10938 46.4479 9.02083 46.4062 8.90625C46.25 8.95833 46.1146 8.98438 46 8.98438C45.875 8.98438 45.776 8.95833 45.7031 8.90625C45.5469 8.98958 45.4688 9.09896 45.4688 9.23438H44.5156C44.474 9.28646 44.4531 9.33854 44.4531 9.39062L42.2031 9.875C41.8281 10.875 41.3333 12.974 40.7188 16.1719C40.75 16.3281 40.7656 16.4896 40.7656 16.6562C40.7656 16.7604 40.7604 16.8646 40.75 16.9688C39.9167 21.9479 39.4688 25.6615 39.4062 28.1094C39.3438 28.2031 39.2083 28.25 39 28.25C38.9062 28.5208 38.8594 28.75 38.8594 28.9375C38.4844 29.1771 38.2083 29.3906 38.0312 29.5781C38.0833 29.5781 38.1094 29.5781 38.1094 29.5781C37.9635 29.5156 37.4427 29.4115 36.5469 29.2656C36.3906 28.8906 36.2969 28.6875 36.2656 28.6562C36.2448 28.6354 36.151 28.625 35.9844 28.625C35.7969 28.3229 35.5521 27.8854 35.25 27.3125L35.3438 23.1406L36.8281 14.1562C37.0781 13.1771 37.3333 12.1354 37.5938 11.0312V10.4219C37.5417 10.349 37.4583 10.2448 37.3438 10.1094C36.8333 10.2552 36.5781 10.3385 36.5781 10.3594C36.5781 10.3594 36.5833 10.3594 36.5938 10.3594C36.5521 10.3594 36.4896 10.3281 36.4062 10.2656C36.3333 10.2135 36.2865 10.1875 36.2656 10.1875C36.2135 10.1875 35.974 10.2552 35.5469 10.3906C35.099 10.5365 34.8698 10.6094 34.8594 10.6094C34.8281 10.6094 34.724 10.5938 34.5469 10.5625C34.3802 10.5312 34.2865 10.5156 34.2656 10.5156L32.1875 10.9219C31.9479 10.8698 31.8229 10.8438 31.8125 10.8438L29.0312 11.4844L26.25 11.75L24.7031 11.7188C24.3281 11.4479 23.9427 11.2396 23.5469 11.0938C23.4948 11.0312 23.474 10.9115 23.4844 10.7344C23.3906 10.651 23.276 10.5781 23.1406 10.5156C23.1406 10.4844 23.1406 10.4583 23.1406 10.4375C23.1406 10.2396 23.0365 10 22.8281 9.71875V9.28125L23.5 6.92188C23.7396 6.80729 24.0938 6.60938 24.5625 6.32812C26.0417 6.05729 28.901 5.61458 33.1406 5L57.9844 1.875H63.2031C63.2135 1.97917 63.3698 2.22917 63.6719 2.625C63.974 3.04167 64.125 3.27083 64.125 3.3125C64.125 3.36458 64.1146 3.40104 64.0938 3.42188C64.1771 3.46354 64.2865 3.52083 64.4219 3.59375ZM70.1562 28.3906C70.0625 28.4635 69.9219 28.5677 69.7344 28.7031C69.7656 28.8594 69.7812 29.0312 69.7812 29.2188C69.7812 29.4688 69.7448 29.7396 69.6719 30.0312V29.75C69.599 29.7083 69.5 29.6094 69.375 29.4531C69.375 29.4635 69.3438 29.5104 69.2812 29.5938C69.2292 29.6771 69.1927 29.7292 69.1719 29.75C69.1719 29.7917 69.2292 29.8646 69.3438 29.9688V30.3125C69.2708 30.3854 69.1562 30.4219 69 30.4219C68.9062 30.6719 68.776 30.9375 68.6094 31.2188H66.9375L65.4375 29.2656C65.2188 28.0469 64.7812 27.0573 64.125 26.2969C64.2188 26.099 64.2656 25.9479 64.2656 25.8438C64.2656 25.7708 64.2552 25.7188 64.2344 25.6875C64.1406 25.6146 63.9896 25.349 63.7812 24.8906C63.375 24.3281 62.8958 23.8333 62.3438 23.4062C61.9167 22.9792 61.4792 22.6458 61.0312 22.4062L59.5781 21.6562C59.0885 21.6354 58.5885 21.5104 58.0781 21.2812C57.9323 21.1875 57.8177 21.1406 57.7344 21.1406C57.7135 21.0573 57.6615 20.9479 57.5781 20.8125H57.375C57.3021 20.8854 57.2188 20.9948 57.125 21.1406C56.5938 21.0781 56 20.9167 55.3438 20.6562C55.1562 20.7812 54.8854 20.9635 54.5312 21.2031C54.5 21.1302 54.3958 21 54.2188 20.8125C54.125 20.8125 54.0208 20.8646 53.9062 20.9688C53.8229 20.9375 53.7188 20.8854 53.5938 20.8125L53.3125 21.1719C53.5 21.2552 53.6302 21.3385 53.7031 21.4219C52.9219 21.5156 52.4062 21.7396 52.1562 22.0938H51.5L51.3281 21.9375C51.151 21.9375 51.0052 21.9479 50.8906 21.9688L50.7188 22.0156L49.4688 24.4688C49.4271 24.5104 49.4062 24.5677 49.4062 24.6406C49.4062 24.6927 49.4271 24.7656 49.4688 24.8594C49.3229 25.151 49.1302 25.5104 48.8906 25.9375C48.4531 25.9375 48.2135 25.9062 48.1719 25.8438L48 26.0938H47.7188C47.5938 25.8542 47.4271 25.6823 47.2188 25.5781C46.9792 25.474 46.8281 25.3906 46.7656 25.3281C46.7656 25.2865 46.7865 25.2344 46.8281 25.1719C46.6719 24.9635 46.5833 24.7292 46.5625 24.4688C46.4583 24.3542 46.3125 24.1615 46.125 23.8906V22.7656C46.125 22.7656 46.151 22.6458 46.2031 22.4062C46.7656 21.8854 47.1719 21.3906 47.4219 20.9219C47.9427 20.4115 48.2604 19.8802 48.375 19.3281C48.5625 18.974 48.8438 18.4583 49.2188 17.7812C49.3854 17.2604 49.7083 16.6562 50.1875 15.9688C50.3958 15.4479 50.7031 14.6615 51.1094 13.6094C51.1927 13.4948 51.3333 13.2865 51.5312 12.9844C51.6146 12.6406 51.6562 12.4271 51.6562 12.3438C52.0833 11.4896 52.776 10 53.7344 7.875C53.8385 7.61458 54.1667 7.04167 54.7188 6.15625C54.8438 5.96875 55.0885 5.48958 55.4531 4.71875C55.8177 3.64583 56.3385 2.33333 57.0156 0.78125C57.151 0.739583 57.349 0.65625 57.6094 0.53125C57.8802 0.614583 58.3021 0.713542 58.875 0.828125C59.5104 1.25521 59.9688 1.61458 60.25 1.90625C60.3438 2.07292 60.4583 2.32292 60.5938 2.65625C61.4375 3.70833 62.5938 6.15625 64.0625 10C64.125 10.1042 64.2031 10.1562 64.2969 10.1562C64.2969 10.2083 64.3542 10.4167 64.4688 10.7812C64.5833 11.1354 64.6406 11.3438 64.6406 11.4062C64.6406 11.5417 64.599 11.6458 64.5156 11.7188C64.599 11.7708 64.7292 11.8698 64.9062 12.0156C65.4167 13.4219 66.1823 16.25 67.2031 20.5C67.2552 20.5833 67.3177 20.6875 67.3906 20.8125C67.8594 23.1354 68.5 25.0156 69.3125 26.4531C69.3125 26.6406 69.5938 27.2865 70.1562 28.3906ZM52.5781 22.2969C52.4115 22.4635 52.2604 22.5833 52.125 22.6562C52.125 22.5625 52.1823 22.3958 52.2969 22.1562L52.5781 22.2969ZM62.4375 18.2656C62.4062 18.0781 62.2812 17.526 62.0625 16.6094C61.7917 15.4844 61.6406 14.8125 61.6094 14.5938L60.3906 10.7344C59.8802 9.16146 59.25 7.81771 58.5 6.70312C58.125 7.00521 57.724 7.66667 57.2969 8.6875C57.4115 8.78125 57.4688 8.86979 57.4688 8.95312C57.4688 8.98438 57.4583 9.01042 57.4375 9.03125L57.2656 8.78125C57.1927 8.89583 57.0885 9.0625 56.9531 9.28125C56.9115 9.16667 56.8646 9.03125 56.8125 8.875L54.5312 13.875C54.5729 13.9375 54.5938 13.9896 54.5938 14.0312C53.9271 14.8021 53.4792 15.724 53.25 16.7969H53.5156C53.6823 16.776 53.8906 16.7656 54.1406 16.7656C54.5365 16.8281 54.7344 16.8646 54.7344 16.875C54.7344 16.875 54.7292 16.875 54.7188 16.875C54.9167 16.875 55.1615 16.8021 55.4531 16.6562L56.4688 16.625C56.4896 16.625 56.7656 16.6927 57.2969 16.8281C57.8385 16.974 58.1198 17.0469 58.1406 17.0469C58.1927 17.0469 58.25 17.0312 58.3125 17C58.3854 16.9583 58.4219 16.9375 58.4219 16.9375L62.3438 18.4844C62.4062 18.4115 62.4375 18.3385 62.4375 18.2656ZM101.094 28.4219L100.922 28.625L100.969 28.7656C101.01 28.8594 101.031 28.9375 101.031 29L100.328 29.5625C99.4635 29.7396 98.9688 29.8281 98.8438 29.8281C98.9167 29.8281 98.9531 29.8281 98.9531 29.8281C98.9531 29.8177 98.6458 29.7969 98.0312 29.7656C97.8229 29.7552 97.6146 29.75 97.4062 29.75C97.2083 29.7396 97.0156 29.7448 96.8281 29.7656C96.6198 29.8594 96.3906 29.9062 96.1406 29.9062L85.6719 28.125L81.0469 26.5312L77.1406 24.7188C76.9531 24.8333 76.8594 25 76.8594 25.2188V26.8906L77.375 29.1719C77.2812 29.4531 77.2344 29.7083 77.2344 29.9375C77.2344 30.0208 77.2396 30.1042 77.25 30.1875L76.0938 31.9062C76.0208 31.9062 75.8542 31.8542 75.5938 31.75L75.4219 31.9844C75.1615 31.8698 74.6927 31.7604 74.0156 31.6562C73.8802 31.5312 73.5365 31.3073 72.9844 30.9844C72.5781 30.7448 72.375 30.5312 72.375 30.3438C72.25 29.8438 72.0885 29.0938 71.8906 28.0938L71.9844 23.4531L72.6562 10.8281C72.625 10.5469 72.3958 10.1719 71.9688 9.70312C71.9688 9.54688 71.9948 9.45312 72.0469 9.42188C72.0469 9.42188 72.0469 9.41667 72.0469 9.40625C72.0469 9.375 72.0208 9.30208 71.9688 9.1875C71.9167 9.0625 71.8906 8.98958 71.8906 8.96875C71.8906 8.73958 72.224 7.94792 72.8906 6.59375C75.6719 4.3125 78 3.08333 79.875 2.90625C79.9583 2.80208 80.2708 2.625 80.8125 2.375C81.3542 2.11458 81.651 1.95833 81.7031 1.90625C82.276 1.71875 83.0885 1.44792 84.1406 1.09375C85.0573 1 85.7969 0.916667 86.3594 0.84375L87.9062 0.640625C88.1146 0.640625 88.9115 0.755208 90.2969 0.984375C90.3385 1.01562 90.5677 1.13542 90.9844 1.34375C91.4427 1.66667 91.875 2.11979 92.2812 2.70312C92.7917 3.07812 93.3594 3.76562 93.9844 4.76562L94.4062 6.79688C94.1771 7.65104 94.0625 8.18229 94.0625 8.39062C93.8542 8.84896 93.6458 9.19792 93.4375 9.4375C93.3021 9.77083 93.1302 10.2344 92.9219 10.8281C92.4427 11.4635 92.0052 11.9896 91.6094 12.4062C91.3177 12.9792 90.849 13.5833 90.2031 14.2188C89.1406 15.2812 88.5677 15.875 88.4844 16C87.9115 16.4062 87.4115 16.7917 86.9844 17.1562C86.6719 17.625 86.1875 18.0208 85.5312 18.3438C84.8438 18.7396 83.6927 19.5365 82.0781 20.7344C82.0781 20.8906 82.099 20.974 82.1406 20.9844C82.1406 20.9844 82.151 20.9792 82.1719 20.9688C82.224 21.0208 82.349 21.1406 82.5469 21.3281C84.4844 21.901 86.6719 22.4375 89.1094 22.9375C92.7969 23.7083 95.1875 24.224 96.2812 24.4844C96.5104 24.5052 96.7396 24.6302 96.9688 24.8594L99 25.5781C100.094 26.2969 100.641 26.7552 100.641 26.9531L101.094 27.3594C101.094 27.401 100.969 27.5625 100.719 27.8438C100.833 27.9062 100.958 27.9844 101.094 28.0781V28.4219ZM89.1875 6.875V6.375C88.8646 6.19792 88.4479 6.10938 87.9375 6.10938L87.0312 6.1875C86.4479 6.23958 86.0573 6.26562 85.8594 6.26562C85.0469 6.50521 83.9896 6.78646 82.6875 7.10938C81.5208 7.61979 80.1406 8.125 78.5469 8.625C77.5365 9.15625 77.0312 9.70833 77.0312 10.2812C77.0312 10.4688 77.0677 10.6719 77.1406 10.8906C77.1198 11.151 77.0625 11.526 76.9688 12.0156L76.625 18.6094C79.2292 16.6823 81.1823 15.1875 82.4844 14.125C84.474 12.4792 86.0938 10.901 87.3438 9.39062C88.5729 7.90104 89.1875 7.0625 89.1875 6.875ZM140.984 3.59375C140.891 3.75 140.839 4.07812 140.828 4.57812C140.807 5.08854 140.771 5.40104 140.719 5.51562C140.833 5.67188 140.891 5.84375 140.891 6.03125C140.87 6.03125 140.807 6.04688 140.703 6.07812C140.609 6.10938 140.557 6.125 140.547 6.125C140.474 6.44792 140.234 6.86458 139.828 7.375C139.88 7.54167 139.911 7.625 139.922 7.625C139.839 7.71875 139.688 7.82812 139.469 7.95312L137.266 7.76562L134.203 7.95312C134.193 7.95312 134.182 7.95312 134.172 7.95312C134.109 7.95312 134.031 7.90104 133.938 7.79688C133.917 7.79688 133.901 7.79688 133.891 7.79688C133.797 7.79688 133.661 7.86979 133.484 8.01562C133.422 8.01562 133.24 8.03125 132.938 8.0625C132.635 8.09375 132.474 8.10938 132.453 8.10938C132.036 8.10938 131.734 8.14583 131.547 8.21875C131.547 8.14583 131.49 8.05729 131.375 7.95312C131.333 8.01562 131.208 8.04688 131 8.04688L129.297 8.53125C129.182 8.53125 128.984 8.54167 128.703 8.5625L128.297 8.59375C128.224 8.59375 128.13 8.54167 128.016 8.4375L127.891 8.59375C127.839 8.59375 127.63 8.61979 127.266 8.67188C126.911 8.72396 126.729 8.75 126.719 8.75C126.688 8.75 126.474 8.72396 126.078 8.67188C125.693 8.61979 125.484 8.59375 125.453 8.59375L123.469 8.84375C123.323 9 123.25 9.10938 123.25 9.17188C123.104 9.10938 123.01 9.02083 122.969 8.90625C122.812 8.95833 122.677 8.98438 122.562 8.98438C122.438 8.98438 122.339 8.95833 122.266 8.90625C122.109 8.98958 122.031 9.09896 122.031 9.23438H121.078C121.036 9.28646 121.016 9.33854 121.016 9.39062L118.766 9.875C118.391 10.875 117.896 12.974 117.281 16.1719C117.312 16.3281 117.328 16.4896 117.328 16.6562C117.328 16.7604 117.323 16.8646 117.312 16.9688C116.479 21.9479 116.031 25.6615 115.969 28.1094C115.906 28.2031 115.771 28.25 115.562 28.25C115.469 28.5208 115.422 28.75 115.422 28.9375C115.047 29.1771 114.771 29.3906 114.594 29.5781C114.646 29.5781 114.672 29.5781 114.672 29.5781C114.526 29.5156 114.005 29.4115 113.109 29.2656C112.953 28.8906 112.859 28.6875 112.828 28.6562C112.807 28.6354 112.714 28.625 112.547 28.625C112.359 28.3229 112.115 27.8854 111.812 27.3125L111.906 23.1406L113.391 14.1562C113.641 13.1771 113.896 12.1354 114.156 11.0312V10.4219C114.104 10.349 114.021 10.2448 113.906 10.1094C113.396 10.2552 113.141 10.3385 113.141 10.3594C113.141 10.3594 113.146 10.3594 113.156 10.3594C113.115 10.3594 113.052 10.3281 112.969 10.2656C112.896 10.2135 112.849 10.1875 112.828 10.1875C112.776 10.1875 112.536 10.2552 112.109 10.3906C111.661 10.5365 111.432 10.6094 111.422 10.6094C111.391 10.6094 111.286 10.5938 111.109 10.5625C110.943 10.5312 110.849 10.5156 110.828 10.5156L108.75 10.9219C108.51 10.8698 108.385 10.8438 108.375 10.8438L105.594 11.4844L102.812 11.75L101.266 11.7188C100.891 11.4479 100.505 11.2396 100.109 11.0938C100.057 11.0312 100.036 10.9115 100.047 10.7344C99.9531 10.651 99.8385 10.5781 99.7031 10.5156C99.7031 10.4844 99.7031 10.4583 99.7031 10.4375C99.7031 10.2396 99.599 10 99.3906 9.71875V9.28125L100.062 6.92188C100.302 6.80729 100.656 6.60938 101.125 6.32812C102.604 6.05729 105.464 5.61458 109.703 5L134.547 1.875H139.766C139.776 1.97917 139.932 2.22917 140.234 2.625C140.536 3.04167 140.688 3.27083 140.688 3.3125C140.688 3.36458 140.677 3.40104 140.656 3.42188C140.74 3.46354 140.849 3.52083 140.984 3.59375Z" fill="white"/>
</svg>
