<svg width="368" height="493" viewBox="0 0 368 493" fill="none" xmlns="http://www.w3.org/2000/svg">
<rect x="154" y="257" width="46" height="70" fill="#D3B6A5"/>
<ellipse cx="39.5" cy="186.5" rx="38.5" ry="41.5" fill="#D3B6A5"/>
<path d="M333 153.5C333 222.812 252.343 279 169.5 279C86.6573 279 33 222.812 33 153.5C33 84.1883 100.157 28 183 28C265.843 28 333 84.1883 333 153.5Z" fill="#E8DAD2"/>
<ellipse cx="329.5" cy="186.5" rx="38.5" ry="41.5" fill="#E8DAD2"/>
<path d="M335 139.5C335 171.5 255.998 65.5 166.5 65.5C77.0016 65.5 32.5001 163.5 32.5 140C32.5 63.2324 94.1361 0.5 182.502 0.5C270.867 0.5 335 62.7324 335 139.5Z" fill="black"/>
<path d="M118 167C118 178.598 113.747 188 108.5 188C103.253 188 99 178.598 99 167C99 167 103.253 167 108.5 167C113.747 167 118 167 118 167Z" fill="black"/>
<path d="M210 167C210 178.598 205.747 188 200.5 188C195.253 188 191 178.598 191 167C191 167 195.253 167 200.5 167C205.747 167 210 167 210 167Z" fill="black"/>
<path d="M366 491C366 494 284.068 491 183 491C81.9319 491 0 491 0 491C0 389.932 69.9319 308 171 308C272.068 308 366 389.932 366 491Z" fill="white"/>
<path d="M366 491C366 494 284.068 491 183 491C81.9319 491 0 491 0 491C0 389.932 69.9319 308 171 308C272.068 308 366 389.932 366 491Z" fill="white"/>
<path fill-rule="evenodd" clip-rule="evenodd" d="M154.389 63.3324L155.881 63C155.881 63 155.898 63.1686 155.919 63.4905L277 76L331.5 145.5C331.5 145.5 291.14 155.293 217.714 132.843C175.045 119.797 159.496 98.3282 153.957 82.631C150.129 98.3282 139.385 119.797 109.9 132.843C59.1618 155.293 33 144.317 33 144.317L97.5 76L151.07 64.0714C151.117 63.374 151.172 63 151.172 63L154.389 63.3324Z" fill="black"/>
<path fill-rule="evenodd" clip-rule="evenodd" d="M175 305.091C159.5 303.99 155.692 313.291 155.692 313.291L153.597 339.859L143 442.753C143 442.753 146.446 468.591 156.292 468.591C166.138 468.591 175 445.926 175 445.926V341.591L191.363 317.304C191.363 317.304 190.5 306.192 175 305.091Z" fill="black"/>
<path fill-rule="evenodd" clip-rule="evenodd" d="M119.525 315.645C46.9571 338.213 0 408.182 0 491H88.6437C87.7524 476.665 87.2449 446.328 93.5 401.5C98.9219 362.643 110.877 333.041 119.525 315.645ZM238.467 320.209C310.266 346.651 366 413.148 366 491C366 492.814 336.038 492.434 290.001 491.85C270.063 491.598 247.11 491.307 222.27 491.139C221.215 477.317 219.727 445.681 223 399.5C225.686 361.596 233.004 335.272 238.467 320.209Z" fill="black"/>
<path d="M165.5 305.5L200 288L208.5 311.5L187.5 332C187.5 332 187.5 324 181.5 315.5C175.5 307 165.5 305.5 165.5 305.5Z" fill="white"/>
<path d="M171 306.5L154 289L146 310L153.5 330C153.5 330 153 321 157.5 314C162 307 171 306.5 171 306.5Z" fill="white"/>
</svg>
