<svg width="368" height="495" viewBox="0 0 368 495" fill="none" xmlns="http://www.w3.org/2000/svg">
<rect x="154" y="259" width="46" height="70" fill="#D3B6A5"/>
<ellipse cx="39.5" cy="184.5" rx="38.5" ry="41.5" fill="#D3B6A5"/>
<path d="M333 151C333 222.797 252.343 281 169.5 281C86.6573 281 33 222.797 33 151C33 79.203 100.157 21 183 21C265.843 21 333 79.203 333 151Z" fill="#E8DAD2"/>
<ellipse cx="329.5" cy="184.5" rx="38.5" ry="41.5" fill="#E8DAD2"/>
<ellipse cx="108.5" cy="175.5" rx="9.5" ry="14.5" fill="black"/>
<ellipse cx="200.5" cy="175.5" rx="9.5" ry="14.5" fill="black"/>
<path fill-rule="evenodd" clip-rule="evenodd" d="M333.481 144.474C335.461 144.106 336.502 142.244 336.502 138.5C336.502 61.7324 275.367 0 187.002 0C98.6361 0 32 62.7324 32 139.5C32 142.49 32.8014 143.513 34.3846 143.021C40.3671 143.132 75.4655 143.241 102 131.5C103.271 130.938 104.496 130.297 105.677 129.587C112.982 136.654 122.605 142 135 142C148.072 142 158.061 136.054 165.5 128.414C172.939 136.054 182.928 142 196 142C211.659 142 222.893 133.468 230.621 123.713C239.035 129.767 248.212 134.968 258 138.5C306.5 156 333.5 144.5 333.5 144.5L333.481 144.474Z" fill="#2E1D11"/>
<path d="M366 493C366 496 284.068 493 183 493C81.9319 493 0 493 0 493C0 391.932 69.9319 310 171 310C272.068 310 366 391.932 366 493Z" fill="#1F2CA0"/>
<path fill-rule="evenodd" clip-rule="evenodd" d="M200.068 312.246C197.822 318.349 186.544 344.712 160 342.5C133.711 340.309 149.657 316.617 154.004 310.789C159.563 310.267 165.231 310 171 310C180.783 310 190.498 310.768 200.068 312.246Z" fill="#D3B6A5"/>
<rect x="165.5" y="154.5" width="69" height="43" rx="9.5" stroke="#1F2CA0" stroke-width="5"/>
<rect x="73.5" y="154.5" width="69" height="43" rx="9.5" stroke="#1F2CA0" stroke-width="5"/>
<rect x="145" y="174" width="20" height="4" fill="#1F2CA0"/>
</svg>
