<svg width="593" height="574" viewBox="0 0 593 574" fill="none" xmlns="http://www.w3.org/2000/svg">
<path d="M137.967 194.933C135.995 188.504 140.803 182 147.527 182H397.613C403.092 182 407.592 186.357 407.915 191.826C409.409 217.101 416.219 287.99 447 367.5C470.96 429.391 521.601 468.261 556.461 488.802C565.477 494.115 562.822 510.749 552.438 512.039L255.215 548.965C250.397 549.564 245.845 546.615 244.422 541.974L137.967 194.933Z" fill="#7E362C"/>
<path d="M443.424 153.827C443.424 153.827 371.271 130.351 257.346 128.258C168.354 126.623 141.924 124.326 56.3887 109.732C-26.0762 100.326 -11.1465 184.327 56.3887 202.327C123.924 220.327 187.924 217.827 263.424 196.326C338.924 174.825 443.424 153.827 443.424 153.827Z" fill="#8B5C25"/>
<ellipse cx="135.5" cy="260.5" rx="38.5" ry="41.5" fill="#D3B6A5"/>
<path d="M129 197.5L166.534 220.5C166.534 220.5 162.034 253 172.534 305.5C183.034 358 220.534 379.5 220.534 379.5L189.338 390.549C178.981 394.217 167.472 391.813 161.161 382.819C151.427 368.949 137.794 343.991 130.034 305.5C117.032 241 129 197.5 129 197.5Z" fill="#9F4C3A"/>
<rect x="250" y="338" width="46" height="70" fill="#D3B6A5"/>
<path d="M429 230C429 301.797 348.343 360 265.5 360C182.657 360 129 301.797 129 230C129 158.203 196.157 100 279 100C361.843 100 429 158.203 429 230Z" fill="#E8DAD2"/>
<ellipse cx="425.5" cy="260.5" rx="38.5" ry="41.5" fill="#E8DAD2"/>
<path d="M228 130H303C303 130 295.5 149.5 295.5 180C295.5 210.5 303 230 303 230H228C228 230 221.5 215 221.5 180C221.5 145 228 130 228 130Z" fill="#9F4C3A"/>
<path d="M286.568 128.366L339.271 107C339.271 107 342.027 128.935 354.582 159.903C367.137 190.87 380.434 208.532 380.434 208.532L327.73 229.899C327.73 229.899 316.988 216.521 302.581 180.984C288.174 145.448 286.568 128.366 286.568 128.366Z" fill="#9F4C3A"/>
<path d="M180.334 134.587L235.266 149.306C235.266 149.306 225.566 163.534 218.986 188.091C212.406 212.648 213.692 229.82 213.692 229.82L158.76 215.101C158.76 215.101 157.235 201.748 164.786 173.568C172.337 145.388 180.334 134.587 180.334 134.587Z" fill="#9F4C3A"/>
<path d="M428.002 220C428.002 251.5 366.867 142.5 278.502 142.5C138.002 142.5 118.501 263 126 220.5C126 143.732 190.136 81.5 278.502 81.5C366.867 81.5 428.002 143.232 428.002 220Z" fill="#9F4C3A"/>
<path d="M356 167L428 220.5C428 220.5 425.5 257.5 444 303.5C462.5 349.5 490.5 376.5 490.5 376.5L461.197 390.152C452.026 394.425 441.379 393.585 434.535 386.133C424.756 375.487 410.122 355.739 395 321.5C368.5 261.5 356 167 356 167Z" fill="#9F4C3A"/>
<path d="M55.9238 109.827C55.9238 109.827 181.542 129.447 295.467 127.354C384.459 125.719 397.999 108.824 481.929 120.843C565.86 132.863 550.889 167.92 550.889 167.92C550.889 167.92 528.205 213.493 364.88 198.97C201.555 184.447 55.9238 109.827 55.9238 109.827Z" fill="#D09249"/>
<path d="M127 140C127 62.6801 189.68 0 267 0H288C365.32 0 428 62.6801 428 140H127Z" fill="#D09249"/>
<ellipse cx="204.5" cy="254.5" rx="9.5" ry="14.5" fill="black"/>
<ellipse cx="296.5" cy="254.5" rx="9.5" ry="14.5" fill="black"/>
<path d="M128 214L134 214.5C134 214.5 128.5 221.5 127.5 229C126.5 236.5 126.5 245.5 126.5 245.5L125 244V229L128 214Z" fill="#9F4C3A"/>
<path d="M462 572C462 575 380.068 572 279 572C177.932 572 96 572 96 572C96 470.932 165.932 389 267 389C368.068 389 462 470.932 462 572Z" fill="#B03120"/>
<path fill-rule="evenodd" clip-rule="evenodd" d="M296.068 391.246C293.822 397.349 282.544 423.712 256 421.5C229.711 419.309 245.657 395.617 250.004 389.789C255.563 389.267 261.23 389 267 389C276.782 389 286.498 389.768 296.068 391.246Z" fill="#D3B6A5"/>
</svg>
